<?xml version="1.0" encoding="UTF-8" standalone="no"?>
<svg
   width="56"
   height="448"
   viewBox="0 0 56 448"
   fill="none"
   version="1.1"
   id="svg62"
   sodipodi:docname="MainIcons2.svg"
   inkscape:version="1.4 (86a8ad7, 2024-10-11)"
   xmlns:inkscape="http://www.inkscape.org/namespaces/inkscape"
   xmlns:sodipodi="http://sodipodi.sourceforge.net/DTD/sodipodi-0.dtd"
   xmlns="http://www.w3.org/2000/svg"
   xmlns:svg="http://www.w3.org/2000/svg">
  <defs
     id="defs62" />
  <sodipodi:namedview
     id="namedview62"
     pagecolor="#ffffff"
     bordercolor="#000000"
     borderopacity="0.25"
     inkscape:showpageshadow="2"
     inkscape:pageopacity="0.0"
     inkscape:pagecheckerboard="0"
     inkscape:deskcolor="#d1d1d1"
     inkscape:zoom="19.773736"
     inkscape:cx="30.975431"
     inkscape:cy="11.960309"
     inkscape:window-width="1920"
     inkscape:window-height="1001"
     inkscape:window-x="-9"
     inkscape:window-y="-9"
     inkscape:window-maximized="1"
     inkscape:current-layer="svg62" />
  <mask
     id="mask0_5_2192"
     style="mask-type:luminance"
     maskUnits="userSpaceOnUse"
     x="3"
     y="322"
     width="10"
     height="10">
    <path
       d="M13 332C13 326.5 8.5 322 3 322C3 325.3 3 328.6 3 332H13Z"
       fill="white"
       id="path1" />
  </mask>
  <g
     mask="url(#mask0_5_2192)"
     id="g2">
    <path
       d="M13 332C13 326.5 8.5 322 3 322C3 325.3 3 328.6 3 332H13Z"
       stroke="#757575"
       stroke-width="4"
       stroke-miterlimit="10"
       id="path2" />
  </g>
  <path
     d="M24 332C24 320.4 14.6 311 3 311"
     stroke="#757575"
     stroke-width="2"
     stroke-miterlimit="10"
     id="path3" />
  <path
     d="M18 332C18 323.7 11.3 317 3 317"
     stroke="#757575"
     stroke-width="2"
     stroke-miterlimit="10"
     id="path4" />
  <mask
     id="mask1_5_2192"
     style="mask-type:luminance"
     maskUnits="userSpaceOnUse"
     x="3"
     y="294"
     width="10"
     height="10">
    <path
       d="M13 304C13 298.5 8.5 294 3 294C3 297.3 3 300.6 3 304H13Z"
       fill="white"
       id="path5" />
  </mask>
  <g
     mask="url(#mask1_5_2192)"
     id="g6">
    <path
       d="M13 304C13 298.5 8.5 294 3 294C3 297.3 3 300.6 3 304H13Z"
       stroke="#B8B8B8"
       stroke-width="4"
       stroke-miterlimit="10"
       id="path6" />
  </g>
  <path
     d="M24 304C24 292.4 14.6 283 3 283"
     stroke="#B8B8B8"
     stroke-width="2"
     stroke-miterlimit="10"
     id="path7" />
  <path
     d="M18 304C18 295.7 11.3 289 3 289"
     stroke="#B8B8B8"
     stroke-width="2"
     stroke-miterlimit="10"
     id="path8" />
  <mask
     id="mask2_5_2192"
     style="mask-type:luminance"
     maskUnits="userSpaceOnUse"
     x="31"
     y="270"
     width="7"
     height="7">
    <path
       d="M38 277C38 273.1 34.9 270 31 270C31 272.3 31 274.6 31 277H38Z"
       fill="white"
       id="path9" />
  </mask>
  <g
     mask="url(#mask2_5_2192)"
     id="g10">
    <path
       d="M43 265H26V282H43V265Z"
       fill="#F6B702"
       id="path10" />
  </g>
  <mask
     id="mask3_5_2192"
     style="mask-type:luminance"
     maskUnits="userSpaceOnUse"
     x="31"
     y="262"
     width="15"
     height="15">
    <path
       d="M40 277C40 272 36 268 31 268C31 266.2 31 264.3 31 262.5C39 262.5 45.5 269 45.5 277H40Z"
       fill="white"
       id="path11" />
  </mask>
  <g
     mask="url(#mask3_5_2192)"
     id="g12">
    <path
       d="M50.5 257.5H26V282H50.5V257.5Z"
       fill="#F6B702"
       id="path12" />
  </g>
  <mask
     id="mask4_5_2192"
     style="mask-type:luminance"
     maskUnits="userSpaceOnUse"
     x="31"
     y="255"
     width="22"
     height="22">
    <path
       d="M47.5 277C47.5 267.9 40.1 260.5 31 260.5C31 258.7 31 256.8 31 255C43.2 255 53 264.8 53 277H47.5Z"
       fill="white"
       id="path13" />
  </mask>
  <g
     mask="url(#mask4_5_2192)"
     id="g14">
    <path
       d="M58 250H26V282H58V250Z"
       fill="#F6B702"
       id="path14" />
  </g>
  <mask
     id="mask5_5_2192"
     style="mask-type:luminance"
     maskUnits="userSpaceOnUse"
     x="3"
     y="266"
     width="10"
     height="10">
    <path
       d="M13 276C13 270.5 8.5 266 3 266C3 269.3 3 272.6 3 276H13Z"
       fill="white"
       id="path15" />
  </mask>
  <g
     mask="url(#mask5_5_2192)"
     id="g16">
    <path
       d="M13 276C13 270.5 8.5 266 3 266C3 269.3 3 272.6 3 276H13Z"
       stroke="#F6B702"
       stroke-width="4"
       stroke-miterlimit="10"
       id="path16" />
  </g>
  <path
     d="M24 276C24 264.4 14.6 255 3 255"
     stroke="#F6B702"
     stroke-width="2"
     stroke-miterlimit="10"
     id="path17" />
  <path
     d="M18 276C18 267.7 11.3 261 3 261"
     stroke="#F6B702"
     stroke-width="2"
     stroke-miterlimit="10"
     id="path18" />
  <path
     d="M37 207V209H39.6C39.7 208.5 39.7 207.5 39.6 207H37Z"
     fill="white"
     id="path19" />
  <path
     d="M42 198C35.4 198 30 203.4 30 210C30 216.6 35.4 222 42 222C48.6 222 54 216.6 54 210C54 203.4 48.6 198 42 198ZM47 215V216C47 216.6 46.6 217 46 217C45.4 217 45 216.6 45 216V215H42C41.8 215 41.6 214.9 41.4 214.8L37 211.3V214C37 214.6 36.6 215 36 215C35.4 215 35 214.6 35 214V206C35 205.4 35.4 205 36 205H40C41.1 205 41.7 206.1 41.7 208C41.7 208.6 41.6 209.2 41.5 209.7C41.1 210.9 40.3 211 40 211H39.9L42.4 213H47C47.3 213 47.5 212.5 47.5 212C47.5 211.6 47.4 211 47 211H45C43.6 211 42.5 209.7 42.5 208C42.5 207.3 42.7 206.6 43 206.1C43.5 205.4 44.2 205 45 205V204C45 203.4 45.4 203 46 203C46.6 203 47 203.4 47 204V205H48C48.6 205 49 205.4 49 206C49 206.6 48.6 207 48 207H45C44.9 207 44.8 207 44.7 207.2C44.6 207.4 44.5 207.7 44.5 208C44.5 208.4 44.7 209 45 209H47C48.4 209 49.5 210.3 49.5 212C49.5 213.7 48.4 215 47 215Z"
     fill="white"
     id="path20" />
  <path
     d="M14 222C7.4 222 2 216.6 2 210C2 203.4 7.4 198 14 198C20.6 198 26 203.4 26 210C26 216.6 20.6 222 14 222ZM14 200C8.5 200 4 204.5 4 210C4 215.5 8.5 220 14 220C19.5 220 24 215.5 24 210C24 204.5 19.5 200 14 200Z"
     fill="white"
     id="path21" />
  <path
     d="M19 215H14C13.8 215 13.6 214.9 13.4 214.8L9 211.3V214C9 214.6 8.6 215 8 215C7.4 215 7 214.6 7 214V206C7 205.4 7.4 205 8 205H12C13.1 205 13.7 206.1 13.7 208C13.7 208.6 13.6 209.2 13.5 209.7C13.1 210.9 12.3 211 12 211H11.9L14.4 213H19C19.3 213 19.5 212.5 19.5 212C19.5 211.6 19.4 211 19 211H17C15.6 211 14.5 209.7 14.5 208C14.5 207.3 14.7 206.6 15 206.1C15.5 205.4 16.2 205 17 205H20C20.6 205 21 205.4 21 206C21 206.6 20.6 207 20 207H17C16.9 207 16.8 207 16.7 207.2C16.6 207.4 16.5 207.7 16.5 208C16.5 208.4 16.7 209 17 209H19C20.4 209 21.5 210.3 21.5 212C21.5 213.7 20.4 215 19 215ZM9 209H11.6C11.7 208.5 11.7 207.5 11.6 207H9V209Z"
     fill="white"
     id="path22" />
  <path
     d="M18 206C17.4 206 17 205.6 17 205V204C17 203.4 17.4 203 18 203C18.6 203 19 203.4 19 204V205C19 205.6 18.6 206 18 206Z"
     fill="white"
     id="path23" />
  <path
     d="M18 217C17.4 217 17 216.6 17 216V215C17 214.4 17.4 214 18 214C18.6 214 19 214.4 19 215V216C19 216.6 18.6 217 18 217Z"
     fill="white"
     id="path24" />
  <path
     d="M37 179V181H39.6C39.7 180.5 39.7 179.5 39.6 179H37Z"
     fill="#B8B8B8"
     id="path25" />
  <path
     d="M42 170C35.4 170 30 175.4 30 182C30 188.6 35.4 194 42 194C48.6 194 54 188.6 54 182C54 175.4 48.6 170 42 170ZM47 187V188C47 188.6 46.6 189 46 189C45.4 189 45 188.6 45 188V187H42C41.8 187 41.6 186.9 41.4 186.8L37 183.3V186C37 186.6 36.6 187 36 187C35.4 187 35 186.6 35 186V178C35 177.4 35.4 177 36 177H40C41.1 177 41.7 178.1 41.7 180C41.7 180.6 41.6 181.2 41.5 181.7C41.1 182.9 40.3 183 40 183H39.9L42.4 185H47C47.3 185 47.5 184.5 47.5 184C47.5 183.6 47.4 183 47 183H45C43.6 183 42.5 181.7 42.5 180C42.5 179.3 42.7 178.6 43 178.1C43.5 177.4 44.2 177 45 177V176C45 175.4 45.4 175 46 175C46.6 175 47 175.4 47 176V177H48C48.6 177 49 177.4 49 178C49 178.6 48.6 179 48 179H45C44.9 179 44.8 179 44.7 179.2C44.6 179.4 44.5 179.7 44.5 180C44.5 180.4 44.7 181 45 181H47C48.4 181 49.5 182.3 49.5 184C49.5 185.7 48.4 187 47 187Z"
     fill="#B8B8B8"
     id="path26" />
  <path
     d="M14 194C7.4 194 2 188.6 2 182C2 175.4 7.4 170 14 170C20.6 170 26 175.4 26 182C26 188.6 20.6 194 14 194ZM14 172C8.5 172 4 176.5 4 182C4 187.5 8.5 192 14 192C19.5 192 24 187.5 24 182C24 176.5 19.5 172 14 172Z"
     fill="#B8B8B8"
     id="path27" />
  <path
     d="M19 187H14C13.8 187 13.6 186.9 13.4 186.8L9 183.3V186C9 186.6 8.6 187 8 187C7.4 187 7 186.6 7 186V178C7 177.4 7.4 177 8 177H12C13.1 177 13.7 178.1 13.7 180C13.7 180.6 13.6 181.2 13.5 181.7C13.1 182.9 12.3 183 12 183H11.9L14.4 185H19C19.3 185 19.5 184.5 19.5 184C19.5 183.6 19.4 183 19 183H17C15.6 183 14.5 181.7 14.5 180C14.5 179.3 14.7 178.6 15 178.1C15.5 177.4 16.2 177 17 177H20C20.6 177 21 177.4 21 178C21 178.6 20.6 179 20 179H17C16.9 179 16.8 179 16.7 179.2C16.6 179.4 16.5 179.7 16.5 180C16.5 180.4 16.7 181 17 181H19C20.4 181 21.5 182.3 21.5 184C21.5 185.7 20.4 187 19 187ZM9 181H11.6C11.7 180.5 11.7 179.5 11.6 179H9V181Z"
     fill="#B8B8B8"
     id="path28" />
  <path
     d="M18 178C17.4 178 17 177.6 17 177V176C17 175.4 17.4 175 18 175C18.6 175 19 175.4 19 176V177C19 177.6 18.6 178 18 178Z"
     fill="#B8B8B8"
     id="path29" />
  <path
     d="M18 189C17.4 189 17 188.6 17 188V187C17 186.4 17.4 186 18 186C18.6 186 19 186.4 19 187V188C19 188.6 18.6 189 18 189Z"
     fill="#B8B8B8"
     id="path30" />
  <path
     d="M51 149H49L47 147V145L44 142L30 156L33 159H35L37 161V163L40 166L54 152L51 149ZM44.7 156.7C44.5 156.9 44.2 157 44 157C43.8 157 43.5 156.9 43.3 156.7L40 153.4L38.7 154.7C38.5 154.9 38.2 155 38 155C37.8 155 37.5 154.9 37.3 154.7C36.9 154.3 36.9 153.7 37.3 153.3L41.3 149.3C41.7 148.9 42.3 148.9 42.7 149.3C43.1 149.7 43.1 150.3 42.7 150.7L41.4 152L44.7 155.3C45.1 155.7 45.1 156.3 44.7 156.7Z"
     fill="#CC9E71"
     id="path31" />
  <path
     d="M12 166C11.7 166 11.5 165.9 11.3 165.7L8.3 162.7C8.1 162.5 8 162.3 8 162V160.4L7.6 160H6C5.7 160 5.5 159.9 5.3 159.7L2.3 156.7C1.9 156.3 1.9 155.7 2.3 155.3L15.3 142.3C15.7 141.9 16.3 141.9 16.7 142.3L19.7 145.3C19.9 145.5 20 145.7 20 146V147.6L20.4 148H22C22.3 148 22.5 148.1 22.7 148.3L25.7 151.3C26.1 151.7 26.1 152.3 25.7 152.7L12.7 165.7C12.5 165.9 12.3 166 12 166ZM10 161.6L12 163.6L23.6 152L21.6 150H20C19.7 150 19.5 149.9 19.3 149.7L18.3 148.7C18.1 148.5 18 148.3 18 148V146.4L16 144.4L4.4 156L6.4 158H8C8.3 158 8.5 158.1 8.7 158.3L9.7 159.3C9.9 159.5 10 159.7 10 160V161.6Z"
     fill="#CC9E71"
     id="path32" />
  <path
     d="M10 155C9.7 155 9.5 154.9 9.3 154.7C8.9 154.3 8.9 153.7 9.3 153.3L13.3 149.3C13.7 148.9 14.3 148.9 14.7 149.3C15.1 149.7 15.1 150.3 14.7 150.7L10.7 154.7C10.5 154.9 10.3 155 10 155Z"
     fill="#CC9E71"
     id="path33" />
  <path
     d="M16 157C15.7 157 15.5 156.9 15.3 156.7L11.3 152.7C10.9 152.3 10.9 151.7 11.3 151.3C11.7 150.9 12.3 150.9 12.7 151.3L16.7 155.3C17.1 155.7 17.1 156.3 16.7 156.7C16.5 156.9 16.3 157 16 157Z"
     fill="#CC9E71"
     id="path34" />
  <path
     d="m 37,11.185016 v 2 h 2.6 c 0.1,-0.5 0.1,-1.5 0,-2 z"
     fill="#02b757"
     id="path35" />
  <path
     d="m 42,2.1850154 c -6.6,0 -12,5.4 -12,12.0000006 0,6.6 5.4,12 12,12 6.6,0 12,-5.4 12,-12 C 54,7.5850154 48.6,2.1850154 42,2.1850154 Z m 5,17.0000006 v 1 c 0,0.6 -0.4,1 -1,1 -0.6,0 -1,-0.4 -1,-1 v -1 h -3 c -0.2,0 -0.4,-0.1 -0.6,-0.2 l -4.4,-3.5 v 2.7 c 0,0.6 -0.4,1 -1,1 -0.6,0 -1,-0.4 -1,-1 v -8 c 0,-0.6000005 0.4,-1.0000006 1,-1.0000006 h 4 c 1.1,0 1.7,1.1000006 1.7,3.0000006 0,0.6 -0.1,1.2 -0.2,1.7 -0.4,1.2 -1.2,1.3 -1.5,1.3 h -0.1 l 2.5,2 H 47 c 0.3,0 0.5,-0.5 0.5,-1 0,-0.4 -0.1,-1 -0.5,-1 h -2 c -1.4,0 -2.5,-1.3 -2.5,-3 0,-0.7 0.2,-1.4 0.5,-1.9 0.5,-0.7000005 1.2,-1.1000006 2,-1.1000006 v -1 c 0,-0.6 0.4,-1 1,-1 0.6,0 1,0.4 1,1 v 1 h 1 c 0.6,0 1,0.4000001 1,1.0000006 0,0.6 -0.4,1 -1,1 h -3 c -0.1,0 -0.2,0 -0.3,0.2 -0.1,0.2 -0.2,0.5 -0.2,0.8 0,0.4 0.2,1 0.5,1 h 2 c 1.4,0 2.5,1.3 2.5,3 0,1.7 -1.1,3 -2.5,3 z"
     fill="#02b757"
     id="path36" />
  <path
     d="m 14,26.010632 c -6.6,0 -12,-5.4 -12,-12 C 2,7.4106324 7.4,2.0106324 14,2.0106324 c 6.6,0 12,5.4 12,11.9999996 0,6.6 -5.4,12 -12,12 z M 14,4.0106324 c -5.5,0 -10,4.5 -10,9.9999996 0,5.5 4.5,10 10,10 5.5,0 10,-4.5 10,-10 C 24,8.5106324 19.5,4.0106324 14,4.0106324 Z"
     fill="#02b757"
     id="path37" />
  <path
     d="m 19,19.010632 h -5 c -0.2,0 -0.4,-0.1 -0.6,-0.2 l -4.4,-3.5 v 2.7 c 0,0.6 -0.4,1 -1,1 -0.6,0 -1,-0.4 -1,-1 v -8 C 7,9.4106324 7.4,9.0106324 8,9.0106324 h 4 c 1.1,0 1.7,1.0999996 1.7,2.9999996 0,0.6 -0.1,1.2 -0.2,1.7 -0.4,1.2 -1.2,1.3 -1.5,1.3 h -0.1 l 2.5,2 H 19 c 0.3,0 0.5,-0.5 0.5,-1 0,-0.4 -0.1,-1 -0.5,-1 h -2 c -1.4,0 -2.5,-1.3 -2.5,-3 0,-0.7 0.2,-1.4 0.5,-1.9 0.5,-0.6999996 1.2,-1.0999996 2,-1.0999996 h 3 c 0.6,0 1,0.4 1,0.9999996 0,0.6 -0.4,1 -1,1 h -3 c -0.1,0 -0.2,0 -0.3,0.2 -0.1,0.2 -0.2,0.5 -0.2,0.8 0,0.4 0.2,1 0.5,1 h 2 c 1.4,0 2.5,1.3 2.5,3 0,1.7 -1.1,3 -2.5,3 z m -10,-6 h 2.6 c 0.1,-0.5 0.1,-1.5 0,-2 H 9 Z"
     fill="#02b757"
     id="path38" />
  <path
     d="m 18,10.010632 c -0.6,0 -1,-0.3999996 -1,-0.9999996 v -1 c 0,-0.6 0.4,-1 1,-1 0.6,0 1,0.4 1,1 v 1 c 0,0.6 -0.4,0.9999996 -1,0.9999996 z"
     fill="#02b757"
     id="path39" />
  <path
     d="m 18,21.010632 c -0.6,0 -1,-0.4 -1,-1 v -1 c 0,-0.6 0.4,-1 1,-1 0.6,0 1,0.4 1,1 v 1 c 0,0.6 -0.4,1 -1,1 z"
     fill="#02b757"
     id="path40" />
  <path
     d="M49 110C48.8 110 48.7 110 48.5 109.9L42 106.2L35.5 109.9C35.2 110.1 34.8 110.1 34.4 109.9C34.1 109.7 33.9 109.3 34 108.9L34.9 101.4L30.2 96.7C29.9 96.4 29.8 96 30 95.7C30.1 95.3 30.4 95.1 30.8 95L37.3 94.1L41.1 87.5C41.5 86.9 42.5 86.9 42.8 87.5L46.6 94.1L53.1 95C53.5 95.1 53.8 95.3 53.9 95.7C54 96.1 53.9 96.5 53.7 96.7L49 101.4L49.9 108.9C49.9 109.3 49.8 109.6 49.5 109.9C49.4 109.9 49.2 110 49 110Z"
     fill="#F6B702"
     id="path41" />
  <path
     d="M21 110C20.8 110 20.7 110 20.5 109.9L14 106.2L7.50005 109.9C7.20005 110.1 6.80005 110.1 6.40005 109.9C6.10005 109.7 5.90005 109.3 6.00005 108.9L6.90005 101.4L2.20005 96.7C1.90005 96.4 1.80005 96 2.00005 95.7C2.10005 95.3 2.40005 95.1 2.80005 95L9.30005 94.1L13.1 87.5C13.5 86.9 14.5 86.9 14.8 87.5L18.6 94.1L25.1 95C25.5 95.1 25.8 95.3 25.9 95.7C26 96.1 25.9 96.5 25.7 96.7L21 101.4L21.9 108.9C21.9 109.3 21.8 109.6 21.5 109.9C21.4 109.9 21.2 110 21 110ZM14 104C14.2 104 14.3 104 14.5 104.1L19.8 107.1L19 101.1C19 100.8 19.1 100.5 19.3 100.3L22.9 96.7L17.9 96C17.6 96 17.3 95.8 17.2 95.5L14 90L10.9 95.5C10.7 95.8 10.5 96 10.2 96L5.20005 96.7L8.80005 100.3C9.00005 100.5 9.10005 100.8 9.10005 101.1L8.30005 107.1L13.6 104.1C13.7 104 13.8 104 14 104Z"
     fill="#F6B702"
     id="path42" />
  <path
     d="M34.9999 60V68.5C34.9999 68.8 35.0999 69.1 35.3999 69.3L39.5999 72.7C39.7999 72.9 39.9999 73.2 39.9999 73.5V75.4C39.9999 75.8 39.7999 76.1 39.3999 76.3L34.4999 78.7C34.1999 78.9 33.8999 79.2 33.8999 79.6V80C33.8999 80.6 34.2999 81 34.8999 81H48.8999C49.4999 81 49.8999 80.6 49.8999 80V79.6C49.8999 79.2 49.6999 78.9 49.2999 78.7L44.3999 76.3C44.0999 76.1 43.7999 75.8 43.7999 75.4V73.5C43.7999 73.2 43.8999 72.9 44.1999 72.7L48.3999 69.3C48.5999 69.1 48.7999 68.8 48.7999 68.5V60C48.7999 59.4 48.3999 59 47.7999 59H35.9999C35.3999 59 34.9999 59.4 34.9999 60Z"
     fill="#F6B702"
     id="path43" />
  <path
     d="M33 69C32.7 69 32.5 68.9 32.3 68.7L30.3 66.7C30.1 66.5 30 66.3 30 66V62C30 61.4 30.4 61 31 61H33C33.6 61 34 61.4 34 62C34 62.6 33.6 63 33 63H32V65.6L33.7 67.3C34.1 67.7 34.1 68.3 33.7 68.7C33.5 68.9 33.3 69 33 69Z"
     fill="#F6B702"
     id="path44" />
  <path
     d="M51 69C50.7 69 50.5 68.9 50.3 68.7C49.9 68.3 49.9 67.7 50.3 67.3L52 65.6V63H51C50.4 63 50 62.6 50 62C50 61.4 50.4 61 51 61H53C53.6 61 54 61.4 54 62V66C54 66.3 53.9 66.5 53.7 66.7L51.7 68.7C51.5 68.9 51.3 69 51 69Z"
     fill="#F6B702"
     id="path45" />
  <path
     d="M21 81H7C6.4 81 6 80.6 6 80V78C6 77.6 6.2 77.2 6.6 77.1L11 75.4V73.6L7.4 70.9C7.1 70.6 7 70.3 7 70V60C7 59.4 7.4 59 8 59H20C20.6 59 21 59.4 21 60V70C21 70.3 20.9 70.6 20.6 70.8L17 73.5V75.3L21.4 77C21.8 77.2 22 77.5 22 77.9V79.9C22 80.6 21.6 81 21 81ZM8 79H20V78.7L15.6 77C15.2 76.8 15 76.4 15 76V73C15 72.7 15.1 72.4 15.4 72.2L19 69.5V61H9V69.5L12.6 72.2C12.9 72.4 13 72.7 13 73V76C13 76.4 12.8 76.8 12.4 76.9L8 78.7V79Z"
     fill="#F6B702"
     id="path46" />
  <path
     d="M5 69C4.7 69 4.5 68.9 4.3 68.7L2.3 66.7C2.1 66.5 2 66.3 2 66V62C2 61.4 2.4 61 3 61H5C5.6 61 6 61.4 6 62C6 62.6 5.6 63 5 63H4V65.6L5.7 67.3C6.1 67.7 6.1 68.3 5.7 68.7C5.5 68.9 5.3 69 5 69Z"
     fill="#F6B702"
     id="path47" />
  <path
     d="M23 69C22.7 69 22.5 68.9 22.3 68.7C21.9 68.3 21.9 67.7 22.3 67.3L24 65.6V63H23C22.4 63 22 62.6 22 62C22 61.4 22.4 61 23 61H25C25.6 61 26 61.4 26 62V66C26 66.3 25.9 66.5 25.7 66.7L23.7 68.7C23.5 68.9 23.3 69 23 69Z"
     fill="#F6B702"
     id="path48" />
  <path
     d="M14 50C13.9 50 13.8 50 13.6 49.9C13.4 49.8 8 47.7 8 43.5V38C8 37.4 8.4 37 9 37H19C19.6 37 20 37.4 20 38V43.5C20 47.6 14.6 49.8 14.4 49.9C14.3 50 14.1 50 14 50ZM10 39V43.5C10 45.6 12.6 47.2 14 47.9C15.4 47.2 18 45.6 18 43.5V39H10Z"
     fill="#F68802"
     id="path49" />
  <path
     d="M14 54C7.4 54 2 48.6 2 42C2 35.4 7.4 30 14 30C20.6 30 26 35.4 26 42C26 48.6 20.6 54 14 54ZM14 32C8.5 32 4 36.5 4 42C4 47.5 8.5 52 14 52C19.5 52 24 47.5 24 42C24 36.5 19.5 32 14 32Z"
     fill="#F68802"
     id="path50" />
  <path
     d="M14 39C13.4 39 13 38.6 13 38V36C13 35.4 13.4 35 14 35C14.6 35 15 35.4 15 36V38C15 38.6 14.6 39 14 39Z"
     fill="#F68802"
     id="path51" />
  <path
     d="M9 39C8.4 39 8 38.6 8 38V36C8 35.4 8.4 35 9 35C9.6 35 10 35.4 10 36V38C10 38.6 9.6 39 9 39Z"
     fill="#F68802"
     id="path52" />
  <path
     d="M19 39C18.4 39 18 38.6 18 38V36C18 35.4 18.4 35 19 35C19.6 35 20 35.4 20 36V38C20 38.6 19.6 39 19 39Z"
     fill="#F68802"
     id="path53" />
  <path
     d="M14 226.1L16 227.6L18.4 226.9L19.6 229L22.1 229.2L22.5 231.7L24.8 232.7L24.3 235.2L26 237L24.6 239.1L25.6 241.4L23.6 242.9V245.4L21.2 246L20.3 248.3L17.9 248.1L16.2 249.9L14 248.8L11.8 249.9L10.1 248.1L7.7 248.3L6.8 246L4.4 245.4V242.9L2.4 241.4L3.4 239.1L2 237L3.7 235.2L3.2 232.7L5.5 231.7L5.9 229.2L8.4 229L9.6 226.9L12 227.6L14 226.1Z"
     fill="#ED1C24"
     id="path56" />
  <path
     fill-rule="evenodd"
     clip-rule="evenodd"
     d="M16 340.7C16 341.073 15.88 341.417 15.6766 341.698C16.8904 341.888 18.0061 342.355 18.9 343.1C20.5 344.4 21.5 346.4 21.6 348.5L21.7 352.3V352.4C23.3 353 24.4 354.5 24.4 356.3V356.4V356.5V356.8C24.009 359.341 19.2235 360.067 16.2996 360.286C16.3607 360.477 16.4 360.678 16.4 360.9C16.4 362 15.4 363 14.3 363C13.2 363 12.2 362.1 12.2 360.9C12.2 360.683 12.2188 360.485 12.2645 360.298C9.16053 360.095 4 359.389 4 356.5V356.2C4 354.4 5.2 352.9 6.7 352.4V352.3L6.9 348.4C7 346.7 7.6 345.2 8.7 343.9C9.73123 342.71 11.2029 341.898 12.8655 341.613C12.6974 341.349 12.6 341.036 12.6 340.7C12.6 339.761 13.3611 339 14.3 339C15.2389 339 16 339.761 16 340.7ZM14.2 343H14.5C15.8 343 17.1 343.4 18.1 344.2C19.4 345.2 20.2 346.8 20.3 348.5L20.4 352.3C19.1 352.7 17.2 353 14.3 353C11.5 353 9.6 352.7 8.3 352.3L8.5 348.5C8.5 347.1 9 345.8 9.9 344.9C11 343.6 12.6 343 14.2 343ZM7.8 353.6C9.4 354.1 11.5 354.4 14.3 354.4C17.1 354.4 19.3 354.1 20.9 353.7C22.2 353.9 23.1 355 23.1 356.4V356.7C22.9 357.8 20.1 358.7 16.2 358.9H12.4C8.5 358.7 5.5 357.7 5.5 356.6V356.4C5.5 354.9 6.5 353.8 7.8 353.6Z"
     fill="#BDBEBE"
     id="path57"
     style="fill:#f6b702;fill-opacity:1" />
  <path
     fill-rule="evenodd"
     clip-rule="evenodd"
     d="m 43.9,340.7 c 0,0.3 -0.0775,0.581 -0.2135,0.826 1.0144,0.2 1.964,0.637 2.8135,1.274 1.5,1.2 2.4,3 2.5,5 l 0.2,4.3 c -1.4,0.4 -3.7,0.8 -7,0.8 -3.3,0 -5.5,-0.4 -7,-0.8 l 0.2,-4.4 c 0,-1.6 0.6,-3 1.6,-4.1 0.982,-1.133 2.3063,-1.81 3.7144,-2.073 C 40.5778,341.282 40.5,341 40.5,340.7 c 0,-0.939 0.7611,-1.7 1.7,-1.7 0.9389,0 1.7,0.761 1.7,1.7 z m 0.4,19 c 4.4,-0.3 7.8,-1.3 7.9,-2.6 v -0.3 c 0,-1.5 -1.1,-2.8 -2.6,-3.1 -1.8,0.5 -4.3,0.9 -7.6,0.9 -3.2,0 -5.7,-0.4 -7.5,-0.9 -1.3,0.3 -2.5,1.5 -2.5,3.1 v 0.3 c 0,1.3 3.4,2.4 8,2.7 l 0.2863,-0.007 C 40.1306,360.092 40,360.496 40,360.9 c 0,1.1 1,2.1 2.2,2.1 1.2,0 2.1,-1 2.1,-2.1 0,-0.455 -0.1656,-0.827 -0.3461,-1.192 z"
     fill="#ffffff"
     id="path58"
     style="display:inline;fill:#f6b702;fill-opacity:1" />
  <g
     opacity="0.5"
     id="g59"
     style="fill:#f6b702;fill-opacity:1">
    <path
       fill-rule="evenodd"
       clip-rule="evenodd"
       d="M16 368.7C16 369.073 15.88 369.417 15.6766 369.698C16.8904 369.888 18.0061 370.355 18.9 371.1C20.5 372.4 21.5 374.4 21.6 376.5L21.7 380.3V380.4C23.3 381 24.4 382.5 24.4 384.3V384.4V384.5V384.8C24.009 387.341 19.2235 388.067 16.2996 388.286C16.3607 388.477 16.4 388.678 16.4 388.9C16.4 390 15.4 391 14.3 391C13.2 391 12.2 390.1 12.2 388.9C12.2 388.683 12.2188 388.485 12.2645 388.298C9.16053 388.095 4 387.389 4 384.5V384.2C4 382.4 5.2 380.9 6.7 380.4V380.3L6.9 376.4C7 374.7 7.6 373.2 8.7 371.9C9.73123 370.71 11.2029 369.898 12.8655 369.613C12.6974 369.349 12.6 369.036 12.6 368.7C12.6 367.761 13.3611 367 14.3 367C15.2389 367 16 367.761 16 368.7ZM14.2 371H14.5C15.8 371 17.1 371.4 18.1 372.2C19.4 373.2 20.2 374.8 20.3 376.5L20.4 380.3C19.1 380.7 17.2 381 14.3 381C11.5 381 9.6 380.7 8.3 380.3L8.5 376.5C8.5 375.1 9 373.8 9.9 372.9C11 371.6 12.6 371 14.2 371ZM7.8 381.6C9.4 382.1 11.5 382.4 14.3 382.4C17.1 382.4 19.3 382.1 20.9 381.7C22.2 381.9 23.1 383 23.1 384.4V384.7C22.9 385.8 20.1 386.7 16.2 386.9H12.4C8.5 386.7 5.5 385.7 5.5 384.6V384.4C5.5 382.9 6.5 381.8 7.8 381.6Z"
       fill="#7B7C7D"
       id="path59"
       style="fill:#f6b702;fill-opacity:1" />
  </g>
  <path
     fill-rule="evenodd"
     clip-rule="evenodd"
     d="M15.8546 399.498C17.8513 397.501 21.0885 397.501 23.0852 399.498C25.0818 401.494 25.0818 404.731 23.0852 406.728L20.1079 409.705C19.7555 410.058 19.1843 410.058 18.8319 409.705C18.4796 409.353 18.4796 408.782 18.8319 408.429L21.8092 405.452C23.1012 404.16 23.1012 402.065 21.8092 400.773C20.5172 399.482 18.4226 399.482 17.1306 400.773L14.1533 403.751C13.801 404.103 13.2297 404.103 12.8774 403.751C12.525 403.398 12.525 402.827 12.8774 402.475L15.8546 399.498ZM19.0446 403.538C19.3969 403.89 19.3969 404.462 19.0446 404.814L11.8141 412.045C11.4617 412.397 10.8904 412.397 10.5381 412.045C10.1857 411.692 10.1857 411.121 10.5381 410.769L17.7686 403.538C18.121 403.186 18.6922 403.186 19.0446 403.538ZM10.7507 405.877C11.1031 406.23 11.1031 406.801 10.7507 407.153L7.77347 410.131C6.48152 411.423 6.48152 413.517 7.77347 414.809C9.06542 416.101 11.1601 416.101 12.452 414.809L15.4293 411.832C15.7817 411.48 16.3529 411.48 16.7053 411.832C17.0576 412.184 17.0576 412.756 16.7053 413.108L13.728 416.085C11.7314 418.082 8.49415 418.082 6.49749 416.085C4.50084 414.089 4.50084 410.851 6.49749 408.855L9.47477 405.877C9.82712 405.525 10.3984 405.525 10.7507 405.877Z"
     fill="#BDBEBE"
     id="path60" />
  <path
     fill-rule="evenodd"
     clip-rule="evenodd"
     d="M43.8546 399.498C45.8513 397.501 49.0885 397.501 51.0852 399.498C53.0818 401.494 53.0818 404.731 51.0852 406.728L48.1079 409.705C47.7555 410.058 47.1843 410.058 46.8319 409.705C46.4796 409.353 46.4796 408.782 46.8319 408.429L49.8092 405.452C51.1012 404.16 51.1012 402.065 49.8092 400.773C48.5172 399.482 46.4226 399.482 45.1306 400.773L42.1533 403.751C41.801 404.103 41.2297 404.103 40.8774 403.751C40.525 403.398 40.525 402.827 40.8774 402.475L43.8546 399.498ZM47.0446 403.538C47.3969 403.89 47.3969 404.462 47.0446 404.814L39.8141 412.045C39.4617 412.397 38.8904 412.397 38.5381 412.045C38.1857 411.692 38.1857 411.121 38.5381 410.769L45.7686 403.538C46.121 403.186 46.6922 403.186 47.0446 403.538ZM38.7507 405.877C39.1031 406.23 39.1031 406.801 38.7507 407.153L35.7735 410.131C34.4815 411.423 34.4815 413.517 35.7735 414.809C37.0654 416.101 39.1601 416.101 40.452 414.809L43.4293 411.832C43.7817 411.48 44.3529 411.48 44.7053 411.832C45.0576 412.184 45.0576 412.756 44.7053 413.108L41.728 416.085C39.7314 418.082 36.4941 418.082 34.4975 416.085C32.5008 414.089 32.5008 410.851 34.4975 408.855L37.4748 405.877C37.8271 405.525 38.3984 405.525 38.7507 405.877Z"
     fill="white"
     id="path61" />
  <path
     fill-rule="evenodd"
     clip-rule="evenodd"
     d="M24.2803 425.22C24.5732 425.513 24.5732 425.987 24.2803 426.28L11.75 438.811L5.21967 432.28C4.92678 431.987 4.92678 431.513 5.21967 431.22C5.51257 430.927 5.98744 430.927 6.28033 431.22L11.75 436.689L23.2197 425.22C23.5126 424.927 23.9874 424.927 24.2803 425.22Z"
     fill="white"
     id="path62" />
</svg>
